<svg xmlns="http://www.w3.org/2000/svg" viewBox="0 0 1024 1024"><defs><style>.n{fill:#0a2947}.t{fill:#48aaaa}.c{fill:#f4eec9}.l{fill:#89d4cd}.w{fill:#fff}.s{stroke:#0a2947;stroke-width:10}.t1{font:700 90px Arial,sans-serif;fill:#0a2947}.t2{font:800 118px Arial,sans-serif;fill:#fff}.t3{font:700 72px Arial,sans-serif;fill:#0a2947}</style></defs><circle cx="512" cy="512" r="432" fill="none" stroke="#0a2947" stroke-width="16"/><circle cx="512" cy="512" r="414" fill="none" stroke="#0a2947" stroke-width="4"/><circle cx="512" cy="512" r="337" class="c s"/><rect x="150" y="430" width="724" height="190" rx="36" class="n"/><path d="M300 380 C355 270,470 280,530 320 C595 245,675 260,700 360 L560 360 C545 376,532 402,520 430 C510 392,486 356,430 350 L300 380 Z" class="t s"/><path d="M520 300 C570 260,610 270,640 315 C607 313,580 336,560 360 C553 333,544 319,520 300 Z" class="l s"/><rect x="300" y="680" width="400" height="125" rx="28" class="l s"/><rect x="335" y="705" width="48" height="37" class="w s"/><rect x="425" y="705" width="48" height="37" class="w s"/><rect x="500" y="705" width="48" height="37" class="w s"/><rect x="575" y="705" width="48" height="37" class="w s"/><polygon points="630,700 690,700 700,740 630,740" class="w s"/><circle cx="380" cy="790" r="35" class="n"/><circle cx="620" cy="790" r="35" class="n"/><circle cx="380" cy="790" r="20" class="w s"/><circle cx="620" cy="790" r="20" class="w s"/><text x="512" y="220" text-anchor="middle" class="t1">PRAIAS DO PORTO</text><text x="512" y="540" text-anchor="middle" class="t2">EXPLORER</text><text x="512" y="910" text-anchor="middle" class="t3">2026</text></svg>